<svg width="1427" height="247" viewBox="0 0 1427 247" fill="none" xmlns="http://www.w3.org/2000/svg">
<g clip-path="url(#clip0)">
<path fill-rule="evenodd" clip-rule="evenodd" d="M1095.8 135.7C1096.8 126.9 1090.5 119 1082 118.2C1080.3 118 1078.5 117.9 1076.8 117.9C1047.8 117.9 1018.8 117.9 989.8 117.9C985.8 117.9 984 116.6 983.3 113.2C983.1 112.4 983.4 111.7 983.5 110.9C984.7 105.7 986 100.6 987.2 95.4C988 92 989.8 90.5 993.4 90.5C995.6 90.5 997.8 90.5 1000 90.5C1028.2 90.5 1056.4 90.5 1084.6 90.5C1092.5 90.5 1100.1 91.9 1107 95.8C1117.8 101.9 1123.4 111.4 1125 123.5C1125.8 129.6 1125 135.5 1123.5 141.4C1121.3 150 1119.9 158.8 1117 167.2C1111.6 182.7 1101.4 194.3 1087.3 202.6C1077.5 208.4 1066.8 211 1055.4 211C1035.6 210.9 1015.7 210.9 995.9 211C989.5 211 983.2 210.1 977.3 207.6C964.9 202.3 958.3 192.6 956.1 179.5C954.9 172.4 956 165.6 957.8 158.7C959.4 152.6 960.8 146.4 962.3 140.2C963 137.2 964.5 135.9 967.5 135.7C968.1 135.7 968.8 135.7 969.4 135.7C1010.6 135.7 1051.9 135.7 1093.1 135.7C1094.2 135.7 1094.9 135.7 1095.8 135.7ZM985.6 162.9C984.8 167.9 985 172.8 988.2 177C991.8 181.8 996.7 183.7 1002.6 183.7C1021.9 183.7 1041.1 183.5 1060.4 183.8C1069.8 183.9 1077.4 180.4 1083.6 173.6C1086.4 170.6 1088.5 167.2 1089.7 162.9C1054.8 162.9 1020.3 162.9 985.6 162.9Z" fill="#E0E0E0"/>
<path fill-rule="evenodd" clip-rule="evenodd" d="M801.3 206.4C800.1 211.1 799 215.7 797.9 220.3C796.2 227.4 794.5 234.5 792.8 241.6C792 244.7 790.3 246.3 787.1 246.3C781.5 246.4 775.9 246.4 770.4 246.3C766.2 246.2 763.9 243.3 764.9 239.4C772.9 206.3 780.9 173.1 788.9 140C793.3 121.8 804.3 108.5 820.2 99.1C829.8 93.4 840.3 90.7 851.5 90.7C871.5 90.7 891.6 90.7 911.6 90.7C920.5 90.7 929 92.4 936.5 97.5C946.6 104.4 951 114.4 951.9 126.2C952.3 131.9 951.2 137.4 949.8 142.9C947.6 151.4 946.5 160.1 943.3 168.2C934.1 191.6 916.9 205.8 892 210.4C889.1 210.9 886.2 211 883.3 211C863.5 211 843.6 211 823.8 211C814.4 211 810 210.1 801.3 206.4ZM858.9 183.7C868.6 183.7 878.2 183.5 887.9 183.8C900.9 184.2 912.6 174.3 915.9 164.1C918.7 155.4 920.7 146.5 922.3 137.5C923.2 132.8 922.3 128.2 919.2 124.3C915.5 119.6 910.5 118 904.8 118C885.2 118 865.5 118 845.9 118C844 118 842 118.1 840.1 118.6C828.2 121.9 820.4 129.4 817.1 141.3C815.2 148 813.8 154.9 812.2 161.7C811.4 165.1 811.2 168.5 812.2 171.9C814.4 179.3 820.6 183.7 828.7 183.8C838.8 183.7 848.8 183.7 858.9 183.7Z" fill="#E0E0E0"/>
<path fill-rule="evenodd" clip-rule="evenodd" d="M603.4 138.7C611.5 134.7 620.3 134.9 629 134.9C648.4 135 667.8 134.9 687.2 134.9C694.3 134.9 701.1 135.6 707.7 139.1C708.7 135 709.7 130.9 710.7 126.8C713.3 116.2 715.8 105.7 718.4 95.1C719.2 91.7 720.7 90.4 724.1 90.4C729.7 90.3 735.4 90.2 741 90.4C745.4 90.5 747.3 93.3 746.2 97.6C737.5 133.9 728.7 170.2 720 206.5C719.3 209.5 717.8 210.8 714.7 210.8C708.9 210.9 703 210.9 697.2 210.8C692.9 210.7 691.3 206.9 692.1 203.8C693.8 197.1 695.5 190.5 696.8 183.8C698.1 177.2 697.2 171 691.8 166.2C688.9 163.6 685.4 162.2 681.6 162.1C660.4 162 639.2 162 618 162.1C611.7 162.1 606.3 165.2 601.6 169.2C595.4 174.4 592.5 181.4 590.9 189.1C589.7 194.8 588.2 200.4 586.9 206.1C586.1 209.2 584.5 210.7 581.3 210.7C575.6 210.8 569.9 210.8 564.2 210.7C560 210.6 558 207.9 559 203.9C567.7 167.5 576.5 131.2 585.2 94.8C585.9 91.8 587.7 90.3 590.9 90.2C596.5 90.1 602.2 90.2 607.8 90.2C611.9 90.2 614 93.8 613.1 97.4C609.8 110.5 606.7 123.7 603.6 136.8C603.4 137.5 603.1 138 603.4 138.7Z" fill="#E0E0E0"/>
<path fill-rule="evenodd" clip-rule="evenodd" d="M485.3 210.9C467.3 210.9 449.4 211.3 431.4 210.8C417.3 210.4 405.7 204.7 398.7 191.7C394.4 183.7 393.1 175 394.8 166.1C396.7 155.9 399 145.8 402.1 135.9C407.1 119.8 417.5 107.8 431.9 99.3C441.7 93.4 452.4 90.7 463.9 90.7C496.1 90.7 528.4 90.7 560.6 90.7C564.5 90.7 566.3 92.1 567 95.3C567.1 95.9 567 96.4 566.9 97C565.5 102.5 564.2 108.1 562.9 113.6C562.2 116.5 560.7 117.8 557.8 118C557.2 118.1 556.5 118 555.9 118C523.6 118 491.3 118.2 459 117.9C444.8 117.8 432 129 429.2 141C427.6 148.1 425.7 155.1 424.2 162.1C422.8 168.7 423.8 174.7 429.1 179.5C432.5 182.6 436.6 183.7 441.1 183.7C455 183.7 469 183.7 482.9 183.7C503.3 183.7 523.6 183.7 544 183.7C548 183.7 549.9 185.1 550.6 188.3C550.8 189.3 550.5 190.1 550.3 190.9C549.1 196 547.8 201.1 546.6 206.2C545.8 209.7 544.3 210.9 540.6 211C535.3 211 530.1 211 524.8 211C511.6 211 498.4 211 485.3 210.9C485.3 210.9 485.3 211 485.3 210.9Z" fill="#E0E0E0"/>
<path fill-rule="evenodd" clip-rule="evenodd" d="M1330 119C1328.8 119 1328.1 119 1327.4 119C1308.1 119 1288.7 119 1269.4 119C1265.3 119 1263.4 117.6 1262.8 114.2C1262.7 113.5 1262.8 112.9 1263 112.3C1264.3 106.8 1265.6 101.2 1267 95.7C1267.5 93.7 1268.7 92.4 1270.8 92C1271.8 91.8 1272.9 91.7 1273.9 91.7C1322.6 91.7 1371.3 91.7 1420 91.7C1424.3 91.7 1426 93 1426.7 96.6C1426.8 97.4 1426.6 98 1426.4 98.7C1425.2 103.7 1424 108.8 1422.8 113.8C1421.8 117.8 1420.1 119.1 1415.9 119.1C1402.7 119.1 1389.6 119.3 1376.4 119C1365.8 118.7 1358.7 123.7 1353.8 132.5C1350.4 138.5 1349.1 145.2 1347.5 151.8C1343.1 170.4 1338.6 188.9 1334.2 207.5C1333.5 210.4 1331.6 211.9 1328.4 212C1322.6 212.1 1316.7 212.1 1310.9 212C1306.9 211.9 1304.6 209.1 1305.5 205.5C1311.2 181.7 1316.9 157.8 1322.8 134C1323.9 128.6 1326.1 123.6 1330 119Z" fill="#E0E0E0"/>
<path fill-rule="evenodd" clip-rule="evenodd" d="M1221.7 91.6C1231.3 91.6 1240.9 91.6 1250.5 91.6C1254.5 91.6 1256.3 93.1 1256.8 96.5C1256.9 97.3 1256.7 98 1256.5 98.8C1255.3 103.8 1253.9 108.8 1252.9 113.9C1252.3 117.2 1250.1 119 1246.2 119C1229.4 119 1212.6 119.6 1195.8 118.8C1179.3 118.1 1166.7 130.1 1163.5 144.5C1158.9 165.4 1153.6 186.2 1148.6 207C1147.8 210.5 1146.2 211.8 1142.6 211.9C1137.1 212 1131.6 212 1126.1 211.9C1121.5 211.8 1119.6 209.1 1120.7 204.6C1125.9 182.9 1130.9 161.2 1136.4 139.5C1140.6 123.1 1150.5 110.6 1164.7 101.5C1175.1 94.7 1186.6 91.5 1199.1 91.6C1206.7 91.7 1214.2 91.6 1221.7 91.6Z" fill="#E0E0E0"/>
<path fill-rule="evenodd" clip-rule="evenodd" d="M746.6 211C743.8 211 741 211 738.2 211C733.5 211 731.9 207.4 732.8 203.9C741.6 167.6 750.3 131.2 759.1 94.9C759.8 92 761.4 90.6 764.7 90.5C770.4 90.4 776.1 90.4 781.8 90.5C786 90.5 787.9 94.1 787.1 97.5C778.9 131.6 770.7 165.7 762.5 199.7C762 202 761.4 204.2 760.8 206.5C760 209.5 758.4 210.9 755.3 210.9C752.3 211 749.5 211 746.6 211Z" fill="#E0E0E0"/>
<path fill-rule="evenodd" clip-rule="evenodd" d="M434 34.2C427.6 34 422.6 31 419.3 25.2C418.9 24.5 418.5 24.2 417.6 24.2C410.3 24.2 403 24.2 395.7 24.2C395 24.2 394.4 24.4 393.9 24.9C380.5 35.8 367 46.6 353.6 57.5C353 58 352.8 58.5 352.6 59.2C343.6 97 334.6 134.7 325.7 172.5C325.2 174.8 323.9 176.5 322.1 177.9C308.4 188.9 294.7 200 281 211.1C278.7 213 276.2 214.8 274 216.8C272.1 218.5 269.9 219.1 267.5 219.1C239.8 219.1 212.2 219.1 184.5 219.1C134.3 219.1 84.1 219.1 34 219.1C32.8 219.1 32.2 219.4 31.5 220.5C27.3 227.1 18.9 230 11.5 227.4C4.00002 224.8 -0.599985 217.5 0.100015 209.4C0.800015 201.8 7.00002 195.4 14.7 194.2C22.2 193.1 29.5 197.1 32.7 204.2C33.2 205.3 33.8 205.5 34.8 205.5C41.6 205.5 48.3 205.5 55.1 205.5C56.1 205.5 56.8 205.2 57.5 204.6C70.7 193.9 84 183.2 97.2 172.5C98 171.9 98.5 171.2 98.7 170.2C106.4 138 114 105.7 121.7 73.5C123 68 124.4 62.5 125.6 57C126.1 54.9 127.1 53.3 128.8 51.9C145.2 38.7 161.5 25.5 177.9 12.3C179.2 11.2 180.7 10.6 182.4 10.6C183 10.6 183.6 10.6 184.1 10.6C261.6 10.6 339.1 10.6 416.7 10.6C418 10.6 418.7 10.3 419.3 9.1C423 2 431.3 -1.6 439.1 0.7C446.8 2.9 452.1 10.4 451.5 18.2C450.9 26.4 444.8 33.1 436.8 34.1C436 34.2 435.2 34.2 434 34.2ZM116.2 156.6C116.4 156.5 116.6 156.5 116.7 156.4C121.2 152.8 125.7 149.1 130.2 145.6C130.8 145.2 130.9 144.6 131.1 144C133.4 134.1 135.8 124.3 138.1 114.4C141.6 99.8 145.1 85.3 148.5 70.7C149 68.7 150 67.1 151.7 65.8C161.2 58.2 170.6 50.6 180.1 42.9C182 41.3 184.1 40.6 186.6 40.6C220.2 40.6 253.8 40.6 287.3 40.6C288.4 40.6 288.9 40.3 289.5 39.4C292.6 34.4 297.1 31.6 302.9 31.3C309.9 30.9 315.5 33.8 319 39.9C322.5 46.2 322.1 52.6 317.9 58.4C313.7 64.1 307.9 66.3 300.9 65.1C294.6 64 290.5 60.1 288 54.2C287.4 54.2 286.8 54.2 286.3 54.2C254 54.2 221.7 54.2 189.4 54.2C188.2 54.2 187.3 54.6 186.4 55.3C179.3 61.1 172.2 67 164.9 72.6C162.3 74.6 161 76.9 160.3 80C154.9 103.3 149.3 126.5 143.8 149.8C143.3 151.9 142.2 153.5 140.5 154.9C120.4 171.2 100.2 187.6 80.1 204C79.6 204.4 79 204.9 78.3 205.5C78.8 205.6 78.9 205.6 79.1 205.6C141.2 205.6 203.3 205.6 265.3 205.6C266 205.6 266.6 205.4 267.2 204.9C282 192.9 296.8 181 311.6 169C312.3 168.4 312.8 167.8 313 166.8C319.6 139.1 326.2 111.4 332.8 83.7C333.6 80.2 334.5 76.6 335.3 73C335 73.1 334.8 73.2 334.7 73.3C330.1 77 325.6 80.7 321 84.3C320.4 84.7 320.3 85.3 320.2 85.9C314.4 110.4 308.6 134.9 302.7 159.3C302.3 161 301.5 162.4 300.1 163.5C290.5 171.3 280.8 179 271.3 186.8C269.3 188.4 267.3 189.1 264.8 189.1C232 189.1 199.1 189.1 166.3 189C165.3 189 164.6 189.3 164.1 190.2C160 196.7 152.2 199.6 144.8 197.5C137.6 195.4 132.5 188.6 132.5 181C132.5 173 138.2 166 146.1 164.3C153.9 162.6 162 166.7 165.3 174.1C165.7 175 166 175.5 167.2 175.5C199 175.5 230.8 175.5 262.5 175.5C263.3 175.5 263.9 175.3 264.5 174.8C272.7 168.2 280.9 161.6 289 155C289.6 154.5 290 153.9 290.2 153.1C295.8 129.6 301.4 106.2 306.9 82.7C307.8 78.6 309.4 75.4 313 73.2C313.3 73 313.6 72.7 313.9 72.5C331.2 58.4 348.6 44.3 365.9 30.2C368.2 28.3 370.5 26.4 373.1 24.3C372.2 24.3 371.6 24.3 371.1 24.3C311.3 24.3 251.5 24.3 191.7 24.2C187 24.2 183.4 25.2 179.7 28.3C166.5 39.3 153 50 139.6 60.8C139 61.3 138.6 61.8 138.4 62.6C131.3 92.7 124.1 122.7 116.9 152.8C116.6 154.1 116 155.3 116.2 156.6C116.1 156.5 116.1 156.5 116 156.7V156.8C116.1 156.7 116.1 156.7 116.2 156.6ZM149.4 185.8C152 185.9 154.2 183.8 154.3 181.2C154.4 178.6 152.3 176.4 149.7 176.3C147.2 176.2 144.8 178.5 144.8 181.1C144.8 183.6 146.9 185.7 149.4 185.8ZM12.4 211C12.4 213.6 14.4 215.8 17 215.8C19.6 215.8 21.8 213.7 21.8 211.2C21.8 208.6 19.7 206.5 17.1 206.4C14.6 206.3 12.5 208.4 12.4 211ZM434.4 21.8C437.1 21.8 439.1 19.8 439.2 17.1C439.2 14.6 437 12.4 434.5 12.3C431.9 12.3 429.8 14.4 429.8 17C429.7 19.8 431.7 21.8 434.4 21.8ZM308.8 48.3C308.8 45.7 306.8 43.6 304.2 43.5C301.6 43.5 299.5 45.6 299.4 48.2C299.4 50.8 301.4 52.9 304.1 52.9C306.8 52.9 308.8 50.9 308.8 48.3Z" fill="#71CB1D"/>
<path fill-rule="evenodd" clip-rule="evenodd" d="M235.6 74.4C246.4 74.4 257.2 74.4 268 74.4C269 74.4 269.6 74.6 270.2 75.5C273.3 79.7 276.4 83.8 279.6 87.9C280.2 88.6 280.3 89.3 280.1 90.2C276.2 106.5 272.3 122.7 268.5 139C268.3 139.9 267.9 140.5 267.2 141.1C261.8 145.5 256.3 149.8 250.9 154.2C250.4 154.6 249.8 154.8 249.2 154.8C227.5 154.8 205.7 154.8 184 154.8C183.2 154.8 182.7 154.5 182.2 153.9C179 149.6 175.7 145.3 172.4 141C171.8 140.3 172 139.6 172.2 138.9C175.5 125 178.8 111.1 182.2 97.2C182.8 94.8 183.4 92.4 183.9 90C184.1 89.2 184.5 88.7 185 88.2C190.4 83.9 195.8 79.5 201.2 75.1C201.9 74.5 202.6 74.4 203.4 74.4C214 74.4 224.8 74.4 235.6 74.4Z" fill="#E0E0E0"/>
</g>
<defs>
<clipPath id="clip0">
<rect width="1426.6" height="246.4" fill="white"/>
</clipPath>
</defs>
</svg>
